<svg xmlns="http://www.w3.org/2000/svg" fill-rule="evenodd" stroke-linecap="round" stroke-linejoin="round" stroke-miterlimit="1.5" clip-rule="evenodd" viewBox="0 0 1084 1084">
  <defs/>
  <path id="ambition_round_gradient_border" fill="none" d="M0 0h1083.3v1083.3H0z"/>
  <path fill="url(#_Linear1)" stroke="url(#_Linear2)" stroke-width="72.1" d="M566.7 56.1a50 50 0 00-50 0l-383 221.1a50 50 0 00-25 43.3v442.3a50 50 0 0025 43.3l383 221.1a50 50 0 0050 0l383-221.1a50 50 0 0025-43.3V320.5a50 50 0 00-25-43.3l-383-221.1z"/>
  <path fill="#010001" d="M758.2 195.5a50 50 0 00-25-43.3L686 125l263.7 152.2a50 50 0 0125 43.3v442.3a50 50 0 01-25 43.3l-383 221.1a50 50 0 01-50 0l-166.5-96.1a50 50 0 01-25-43.3V695.5a50 50 0 0125-43.3l383-221.1a50 50 0 0025-43.3V195.5zM566.7 902.2a50 50 0 01-50 0l-58.3-33.6a50 50 0 01-25-43.3V758a50 50 0 0125-43.3l58.3-33.6a50 50 0 0150 0l58.2 33.6a50 50 0 0125 43.3v67.3a50 50 0 01-25 43.3l-58.2 33.6zm0-500a50 50 0 01-50 0l-58.3-33.6a50 50 0 01-25-43.3V258a50 50 0 0125-43.3l58.3-33.6a50 50 0 0150 0l58.2 33.6a50 50 0 0125 43.3v67.3a50 50 0 01-25 43.3l-58.2 33.6z"/>
  <defs>
    <linearGradient id="_Linear1" x1="0" x2="1" y1="0" y2="0" gradientTransform="matrix(866.025 0 0 1000 108.7 541.7)" gradientUnits="userSpaceOnUse">
      <stop offset="0" stop-color="#e2ff70"/>
      <stop offset=".3" stop-color="#adff2f"/>
      <stop offset=".5" stop-color="#adfd2d"/>
      <stop offset=".8" stop-color="#7ae105"/>
      <stop offset="1" stop-color="#56b007"/>
    </linearGradient>
    <linearGradient id="_Linear2" x1="0" x2="1" y1="0" y2="0" gradientTransform="matrix(866.025 0 0 1000 108.7 541.7)" gradientUnits="userSpaceOnUse">
      <stop offset="0" stop-color="#e2ff70"/>
      <stop offset=".3" stop-color="#adff2f"/>
      <stop offset=".5" stop-color="#adff2f"/>
      <stop offset=".8" stop-color="#7ae105"/>
      <stop offset="1" stop-color="#56b007"/>
    </linearGradient>
  </defs>
</svg>
