<svg xmlns="http://www.w3.org/2000/svg" fill-rule="evenodd" stroke-linejoin="round" stroke-miterlimit="2" clip-rule="evenodd" viewBox="0 0 1000 1000">
  <defs/>
  <path id="ambition_round_flat_clean" fill="none" d="M0 0h1000v1000H0z"/>
  <path fill="#adfd2d" d="M525 14.4a50 50 0 00-50 0L92 235.6a50 50 0 00-25 43.3V721a50 50 0 0025 43.3l220.4 127.3c4.7 2.7 10 4.1 15.5 4.1H653c17 0 33-8.7 42.2-23L904.9 544a50 50 0 00-17.2-70.2l-146.2-84.5a50 50 0 01-25-43.3V154a50 50 0 00-25-43.3L525 14.4z"/>
  <path fill="#010001" d="M716.5 153.9a50 50 0 00-25-43.3l-47.2-27.3L908 235.6a50 50 0 0125 43.3V721a50 50 0 01-25 43.3L525 985.6a50 50 0 01-50 0l-166.5-96.2a50 50 0 01-25-43.3V654a50 50 0 0125-43.3l383-221.2a50 50 0 0025-43.3V154zM525 860.6a50 50 0 01-50 0l-58.3-33.7a50 50 0 01-25-43.3v-67.2a50 50 0 0125-43.3l58.3-33.7a50 50 0 0150 0l58.3 33.7a50 50 0 0125 43.3v67.2a50 50 0 01-25 43.3L525 860.6zm0-500a50 50 0 01-50 0l-58.3-33.7a50 50 0 01-25-43.3v-67.2a50 50 0 0125-43.3l58.3-33.7a50 50 0 0150 0l58.3 33.7a50 50 0 0125 43.3v67.2a50 50 0 01-25 43.3L525 360.6z"/>
</svg>
