<svg xmlns="http://www.w3.org/2000/svg" fill-rule="evenodd" stroke-linejoin="round" stroke-miterlimit="2" clip-rule="evenodd" viewBox="0 0 1084 1084">
  <defs/>
  <path id="ambition_sharp_gradient_border" fill="none" d="M0 0h1083.3v1083.3H0z"/>
  <clipPath id="_clip1">
    <path d="M0 0h1083.3v1083.3H0z"/>
  </clipPath>
  <g clip-path="url(#_clip1)">
    <path fill="url(#_Linear2)" d="M541.7 0L72.6 270.8v541.7l469 270.8 469.2-270.8V270.8L541.7 0z"/>
    <path fill="#010001" d="M758.2 166.7L686 125l288.7 166.7v500l-433 250-216.5-125v-250l433-250v-250zm-216.5 750l-108.3-62.5v-125l108.3-62.5 108.2 62.5v125l-108.2 62.5zm0-500l-108.3-62.5v-125l108.3-62.5 108.2 62.5v125l-108.2 62.5z"/>
  </g>
  <defs>
    <linearGradient id="_Linear2" x1="0" x2="1" y1="0" y2="0" gradientTransform="matrix(938.194 0 0 1083.33 72.6 541.7)" gradientUnits="userSpaceOnUse">
      <stop offset="0" stop-color="#e2ff70"/>
      <stop offset=".3" stop-color="#adff2f"/>
      <stop offset=".5" stop-color="#adff2f"/>
      <stop offset=".8" stop-color="#7ae105"/>
      <stop offset="1" stop-color="#56b007"/>
    </linearGradient>
  </defs>
</svg>
