<svg xmlns="http://www.w3.org/2000/svg" fill-rule="evenodd" stroke-linejoin="round" stroke-miterlimit="2" clip-rule="evenodd" viewBox="0 0 1000 1000">
  <defs/>
  <path id="ambition_sharp_gradient_clean" fill="none" d="M0 0h1000v1000H0z"/>
  <clipPath id="_clip1">
    <path d="M0 0h1000v1000H0z"/>
  </clipPath>
  <g clip-path="url(#_clip1)">
    <path fill="url(#_Linear2)" d="M500 0L67 250v500l216.5 125h433V625L933 500 716.5 375V125L500 0z"/>
    <path fill="#010001" d="M716.5 125l-72.2-41.7L933 250v500l-433 250-216.5-125V625l433-250V125zM500 875l-108.3-62.5v-125L500 625l108.3 62.5v125L500 875zm0-500l-108.3-62.5v-125L500 125l108.3 62.5v125L500 375z"/>
  </g>
  <defs>
    <linearGradient id="_Linear2" x1="0" x2="1" y1="0" y2="0" gradientTransform="matrix(866.025 0 0 875 67 437.5)" gradientUnits="userSpaceOnUse">
      <stop offset="0" stop-color="#e2ff70"/>
      <stop offset=".3" stop-color="#adff2f"/>
      <stop offset=".5" stop-color="#adff2f"/>
      <stop offset=".8" stop-color="#7ae105"/>
      <stop offset="1" stop-color="#56b007"/>
    </linearGradient>
  </defs>
</svg>
