<svg xmlns="http://www.w3.org/2000/svg" fill-rule="evenodd" stroke-linejoin="round" stroke-miterlimit="2" clip-rule="evenodd" viewBox="0 0 2500 834">
  <defs/>
  <path id="Artboard1" fill="none" d="M0 0h2500v833.3H0z"/>
  <g fill="#fff">
    <path fill-rule="nonzero" d="M231.9 679.2h-58.5v-525h58.5v220.5h9c11.5-24 27.6-43 48.3-57a133 133 0 0176.2-21c40.5 0 73.4 13.3 98.6 40 25.3 26.8 37.9 67 37.9 120.5v222h-58.5v-210c0-39-8.8-68.3-26.3-87.8S376 352.2 346 352.2c-35.5 0-63.4 12-83.6 36.3-20.3 24.3-30.4 56.7-30.4 97.2v193.5zM675.1 511.2c1.5 37 13 66.7 34.5 89.2s51.5 33.8 90 33.8c17.5 0 32.8-2 45.8-6s24.1-9.5 33.4-16.5c9.2-7 16.7-15.2 22.5-24.4 5.7-9.3 10.3-19.1 13.8-29.6l55.5 15a164.2 164.2 0 01-58.1 84.3c-28.3 21.8-66.4 32.7-114.4 32.7-26.5 0-50.9-4.7-73.1-14a164.5 164.5 0 01-57.4-39.3 183 183 0 01-37.5-60.7c-9-23.5-13.5-49.5-13.5-78v-18c0-26 4.6-50.3 13.9-72.8a172.7 172.7 0 0138.6-58.1c16.5-16.3 35.9-29 58.1-38.3a186.7 186.7 0 0172.4-13.8c30.5 0 56.9 5.6 79.1 16.8a176.3 176.3 0 0154.8 41.7 164.5 164.5 0 0131.5 54 166 166 0 0110.1 54v48h-300zm124.5-159c-16.5 0-31.9 2.6-46.1 7.8a117.2 117.2 0 00-76.9 97.2h240a107.9 107.9 0 00-37.9-76.5 123 123 0 00-79.1-28.5zM1356.1 307.2h66.8l-109.5 177v9l118.5 186h-68.3l-101.2-163.5h-13.5l-101.3 163.5h-68.2l118.5-186v-9l-109.5-177h66.7l93.8 154.5h13.5l93.7-154.5z"/>
    <path d="M1559.4 625.2h130.5v-264h-117v-54h175.5v318h121.5v54h-310.5v-54z"/>
    <path fill-rule="nonzero" d="M2086.6 403.2c0 18 7.6 31.7 22.9 41.2 15.2 9.5 43.1 15.8 83.6 18.8 43.5 3.5 76.6 13.8 99.4 31 22.7 17.3 34.1 42.5 34.1 75.5v4.5a105.2 105.2 0 01-40.9 84.7 134.8 134.8 0 01-46.5 22.9 215 215 0 01-59.6 7.9c-29 0-53.9-4-74.6-11.7-20.8-7.7-38-18-51.8-30.7a128.1 128.1 0 01-31-43.5c-7-16.3-11-32.6-12-49.1l55.4-13.5a99.4 99.4 0 0033 68.6c19.5 17.2 45.5 25.9 78 25.9 27.5 0 49.6-5.4 66.4-16.2a51 51 0 0025.1-45.3c0-21-8.2-36-24.7-45s-43.3-14.8-80.3-17.3c-43-3-76-13-99-30s-34.5-41.7-34.5-74.2v-4.5A92 92 0 012041 357a102 102 0 0130.3-33.3c12.8-9 27.2-15.8 43.2-20.3 16-4.5 32.7-6.7 50.2-6.7 24.5 0 46 3.3 64.5 10 18.5 6.8 34 15.6 46.5 26.3a114 114 0 0128.9 37.2c6.7 14 11.1 28 13.1 42l-55.5 13.5a79.5 79.5 0 00-28.9-56.3c-16.7-13.5-38.6-20.2-65.6-20.2-10.5 0-20.6 1-30.4 3.3a88.7 88.7 0 00-25.8 10.2 55.6 55.6 0 00-18 16.8 41.6 41.6 0 00-6.8 23.7z"/>
  </g>
  <path fill="#fff" d="M1716.3 197.4V253l-48.2-27.8v-55.6l48.2 27.8zm52.3 27.8l-48.1 27.8v-55.6l48.1-27.8v55.6zm-2-59.2l-48.2 27.8-48.2-27.8 48.2-27.8 48.1 27.8z"/>
</svg>
