<svg xmlns="http://www.w3.org/2000/svg" fill-rule="evenodd" stroke-linejoin="round" stroke-miterlimit="2" clip-rule="evenodd" viewBox="0 0 1920 1920">
  <g id="_-366c1fff" fill="#366c1f" fill-rule="nonzero">
    <path d="M959.33,220.39c6.1,-1.19 12.15,0.84 17.3,4.02c30.89,17.75 61.7,35.62 92.56,53.4c6.74,4.32 14.27,7.42 20.51,12.5c2.31,1.68 1.9,5.01 0.79,7.27c-1.33,2 -3.55,3.13 -5.5,4.39c-86.4,49.96 -172.85,99.84 -259.29,149.73c-6.45,3.93 -14.46,5.6 -21.83,3.63c-5.82,-1.16 -10.64,-4.79 -15.78,-7.51c-30.98,-17.99 -62.09,-35.76 -93.05,-53.78c-3.59,-2.09 -7.41,-3.84 -10.64,-6.47c-2.39,-1.8 -2.86,-5.31 -1.75,-7.94c2.38,-3.09 6.04,-4.77 9.37,-6.61c83.65,-48.31 167.33,-96.58 250.97,-144.92c5.29,-2.85 10.28,-6.68 16.34,-7.71Z"/>
    <path d="M551.39,455.47c9.69,-2.05 18.82,3.4 26.79,8.27c65.31,37.68 130.58,75.43 195.91,113.09c3.51,2.11 7.37,3.87 10.26,6.86c2.84,3.43 1.23,9.05 -2.69,10.93c-36.49,21.23 -73.1,42.24 -109.63,63.39c-8.7,5.31 -20.36,5.31 -29.01,-0.09c-70.45,-40.5 -140.74,-81.27 -211.16,-121.82c-2.38,-1.53 -5.11,-3.79 -4.58,-6.97c0.03,-2.85 2.63,-4.6 4.77,-6c33.59,-19.44 67.23,-38.77 100.79,-58.27c6.12,-3.23 11.82,-7.46 18.55,-9.39Z"/>
    <path d="M1606.35,726.33c3.56,-1.67 8.04,0.72 8.15,4.77c0.62,8.61 0.13,17.28 0.29,25.92c-0,31.97 -0,63.95 -0.01,95.93c0.1,7.76 0.45,16.13 -3.76,23.01c-4.53,7.03 -12.42,10.51 -19.36,14.61c-66.83,38.48 -133.54,77.16 -200.38,115.61c-3.15,1.36 -7.5,4.02 -10.41,0.86c-3.02,-2.41 -2.93,-6.59 -3.08,-10.07c0.01,-41.32 -0.23,-82.65 0.11,-123.96c-0.14,-9.62 5.46,-18.62 13.54,-23.59c67.83,-39.14 135.64,-78.33 203.47,-117.48c3.65,-2.16 7.25,-4.61 11.44,-5.61Z"/>
    <path d="M1606.29,1020.26c5.17,-2.48 9.2,2.94 8.41,7.75c0.21,100.67 0.01,201.34 0.1,302.02c0.06,7.49 -1.61,15.99 -7.92,20.79c-4.9,3.66 -10.51,6.19 -15.66,9.46c-33.8,19.51 -67.62,39.02 -101.42,58.52c-2.85,1.62 -7.24,1.41 -8.73,-1.92c-2.35,-5.99 -1.23,-12.61 -1.4,-18.88c-0.19,-93.67 -0.09,-187.34 -0.09,-281c-0.2,-8.16 -0.14,-16.94 4.64,-23.94c4.46,-7.11 12.5,-10.3 19.39,-14.46c29.16,-16.83 58.3,-33.7 87.48,-50.49c5,-2.73 9.64,-6.3 15.2,-7.85Z"/>
    <path d="M315.24,1196.29c3.98,-1.1 7.81,1.71 11.32,3.3c84.55,48.75 169.04,97.6 253.58,146.37c4.34,2.46 8.95,4.8 12.19,8.72c4.16,5.14 6.77,11.62 6.65,18.29c0.07,41.33 -0.31,82.68 0,124.01c-0.41,3.56 0.04,8.45 -3.55,10.54c-5.23,1.37 -9.82,-2.49 -14.1,-4.89c-85.14,-49.17 -170.29,-98.31 -255.42,-147.48c-4.1,-2.4 -8.58,-4.78 -11.06,-9.01c-2.09,-3.69 -3.48,-7.87 -3.55,-12.12c-0.03,-43.03 0.03,-86.07 -0.01,-129.09c-0.06,-3.22 0.78,-7.12 3.95,-8.64Z"/>
    <path d="M722.22,1314.22c2.17,-1.37 4.72,-0.1 6.91,0.61c5.66,2.39 10.71,5.97 16.1,8.9c31.93,18.46 63.95,36.77 95.8,55.37c7.45,4.54 12.3,13.18 12.36,21.9c-0.03,80.66 -0.09,161.32 0.1,241.98c-0.16,3.92 0.24,8.69 -3.07,11.51c-4.73,1.37 -9.08,-1.72 -12.97,-3.96c-35.88,-20.81 -71.87,-41.42 -107.7,-62.3c-8.49,-4.82 -12.42,-14.81 -11.95,-24.24c-0.06,-79.33 -0.04,-158.67 -0.02,-238c0.22,-4.13 0.01,-9.73 4.44,-11.77Z"/>
  </g>
  <g id="_-0f280cff" fill="#0f280c" fill-rule="nonzero">
    <path d="M1111.39,308.51c8.48,-2.12 16.16,2.91 23.15,6.94c2.97,1.89 6.72,3.57 7.85,7.23c0.69,2.35 -0.91,4.63 -2.66,6.05c-7.37,6.04 -16.65,10.75 -26.43,9.83c-8.01,-0.49 -14.96,-4.99 -21.28,-9.53c-2.46,-1.64 -3.15,-4.93 -2.53,-7.67c0.67,-2.35 2.81,-3.83 4.73,-5.16c5.28,-3.4 10.91,-6.55 17.17,-7.69Z"/>
    <path d="M1063.41,337.45c7.18,-0.5 13.85,2.76 19.91,6.22c3.24,1.94 6.77,4.24 8.09,7.98c0.79,3.7 -2.44,6.61 -5.2,8.48c-9.24,5.9 -19.05,10.87 -28.34,16.68c-21.71,12.19 -43.11,24.9 -64.7,37.29c-39.65,22.69 -79.05,45.81 -118.75,68.41c-6.68,3.56 -14.81,4.01 -22.02,1.93c-4.21,-1.45 -8.09,-3.71 -11.83,-6.08c-2.88,-1.9 -5.88,-4.64 -5.81,-8.38c0.09,-3.77 3.61,-5.98 6.46,-7.78c65.12,-37.45 130.07,-75.2 195.21,-112.62c8.62,-4.7 16.84,-11.36 26.98,-12.13Z"/>
    <path d="M1214.35,543.49c7.56,-0.76 15.19,1.44 21.38,5.8c3.47,2.52 8.74,4.7 8.7,9.73c0.11,3.03 -2.6,5.01 -4.79,6.59c-7.34,4.89 -15.38,8.6 -22.89,13.19c-27.4,16.44 -55.46,31.73 -82.94,48.04c-5.83,3.8 -12.7,6.27 -19.73,5.82c-8.04,-0.46 -15.08,-4.83 -21.63,-9.13c-3.44,-2.12 -4.4,-7.6 -1.5,-10.55c3.81,-4.18 9.24,-6.24 14,-9.11c31.84,-18.53 63.89,-36.7 95.67,-55.33c4.23,-2.47 8.78,-4.64 13.73,-5.05Z"/>
    <path d="M469.35,931.42c1.8,-0.49 3.65,0.1 5.27,0.92c36.56,20.67 72.75,42.02 109.19,62.92c8.62,4.67 14.98,13.75 15.34,23.68c0.27,5.27 0.62,10.84 -1.35,15.85c-0.97,2.52 -4.03,3.1 -6.42,2.77c-5.6,-0.74 -10.15,-4.38 -14.98,-7.01c-30.74,-17.96 -61.75,-35.46 -92.48,-53.45c-4.93,-2.96 -10.34,-5.48 -14.2,-9.85c-5.47,-6.75 -7.2,-15.73 -6.58,-24.23c0.05,-4.47 0.76,-10.76 6.21,-11.6Z"/>
    <path d="M1452.37,1108.46c2.41,-0.9 5.58,-1.42 7.63,0.59c2.37,2.28 2.79,5.77 2.85,8.91c-0.05,80 -0.1,160.01 -0,240.01c0.3,7.32 -1.7,14.85 -6.31,20.62c-3.65,4.58 -9.17,6.93 -14.12,9.78c-3.03,1.64 -6.85,3.48 -10.15,1.48c-3.39,-1.97 -3.31,-6.41 -3.51,-9.82c0.03,-23 0.03,-46 0.01,-69c-0.5,-53.35 -0.21,-106.7 -0.12,-160.05c0.11,-8.71 -1.03,-18.08 3.23,-26.07c4.26,-8 12.43,-12.92 20.49,-16.45Z"/>
    <path d="M315.38,1137.4c3.16,-0.83 6.26,0.78 9.02,2.15c5.86,3.15 12.08,6.54 15.6,12.46c5.53,8.13 5.16,18.6 3.71,27.91c-0.23,4.7 -6.31,5.77 -9.85,4.1c-7.4,-3.27 -14.73,-7.74 -19.26,-14.63c-3.99,-7.11 -3.63,-15.58 -3.36,-23.45c0.21,-3.14 0.77,-7.27 4.14,-8.54Z"/>
    <path d="M366.25,1167.24c6.4,-1.5 11.94,3.39 17.23,6.25c65.68,38.05 131.45,75.95 197.22,113.84c5.74,3 11.04,7.07 14.47,12.66c5.04,6.91 4.61,15.96 3.94,24.06c-0.33,3.14 -1.57,7.37 -5.4,7.52c-5.72,0.33 -10.51,-3.38 -15.32,-5.93c-67.99,-39.42 -136.07,-78.68 -204.17,-117.9c-7.05,-4.48 -11.78,-12.18 -12.67,-20.48c-0.46,-5.08 -0.68,-10.3 0.39,-15.31c0.37,-2.28 2.18,-4.02 4.31,-4.71Z"/>
    <path d="M1197.35,1255.46c2.84,-0.93 6.95,-1.55 8.9,1.34c2.67,3.84 2.39,8.76 2.49,13.23c-0.17,38.98 0.05,77.96 -0.13,116.95c0.21,9.97 -3.86,20.73 -12.62,26.14c-4.2,2.6 -8.54,5.15 -13.31,6.53c-3.01,0.93 -6.66,-0.71 -7.64,-3.76c-2.22,-6.39 -1.15,-13.29 -1.25,-19.9c-0.12,-28.99 0.06,-57.98 0.05,-86.97c0.08,-8.68 -0.18,-17.38 0.38,-26.04c0.47,-7.11 3.59,-14.08 9.04,-18.75c4.2,-3.63 9.05,-6.49 14.09,-8.77Z"/>
    <path d="M1453.29,1402.31c2.76,-0.79 6.55,-0.62 8.05,2.28c2.18,4.44 1.42,9.59 1.52,14.39c0.05,7.95 -3.31,16.31 -10.02,20.9c-4.18,2.92 -8.53,5.66 -13.15,7.84c-2.79,1.37 -6.48,1.68 -8.96,-0.45c-1.68,-2 -1.69,-4.8 -1.91,-7.25c-0.27,-7.78 -0.56,-16.31 4.11,-23c4.92,-6.93 12.32,-12.06 20.36,-14.71Z"/>
  </g>
  <g id="_-204914ff" fill="#204914" fill-rule="nonzero">
    <path d="M1160.29,338.34c6.28,-1.74 13.08,-0.51 18.63,2.82c70.79,40.86 141.57,81.73 212.37,122.58c2.96,1.69 6.74,4.76 5.1,8.61c-2.48,4.85 -7.83,7.05 -12.2,9.82c-29.28,16.69 -58.3,33.82 -87.6,50.48c-8.09,4.53 -15.8,10.65 -25.27,11.85c-6.91,0.99 -13.56,-1.86 -19.37,-5.3c-46.02,-26.31 -91.79,-53.07 -137.76,-79.47c-23.28,-13.27 -46.31,-26.98 -69.66,-40.15c-2.86,-1.56 -6.04,-3.89 -5.86,-7.55c-0.43,-3.66 2.5,-6.29 5.34,-7.97c33.01,-18.97 65.86,-38.23 98.95,-57.07c5.61,-3.18 10.97,-7.09 17.33,-8.65Z"/>
    <path d="M806.37,602.46c9.68,-1.48 19.04,3.04 26.69,8.56c2.38,1.58 4.11,4.4 3.43,7.33c-0.28,3.48 -3.46,5.41 -6.11,7.09c-35.97,20.63 -71.78,41.55 -107.79,62.12c-8.04,5.01 -18.62,5.27 -26.91,0.72c-4.36,-2.49 -9.44,-4.3 -12.72,-8.23c-3.14,-4.62 1.15,-9.61 5.14,-11.84c36.07,-20.54 71.85,-41.59 107.88,-62.21c3.24,-1.74 6.75,-2.97 10.39,-3.54Z"/>
    <path d="M316.34,843.42c3.11,-0.66 6,1.04 8.64,2.44c32.98,19.08 66.02,38.01 99,57.08c5.93,3.6 12.7,6.47 16.79,12.37c4.3,5.59 5.71,12.77 5.56,19.69c-0.12,75 0.05,150.01 -0.12,225.01c-0.18,7.53 0.86,15.37 -1.62,22.62c-3,2.76 -7.51,2.41 -10.82,0.44c-9.25,-4.94 -18.03,-10.71 -27.31,-15.59c-21.87,-12.86 -43.94,-25.38 -65.87,-38.12c-7.08,-4.59 -15.1,-7.77 -21.5,-13.37c-5.04,-4.52 -7.81,-11.27 -7.83,-18c0.04,-82.01 0.05,-164.02 -0,-246.03c0.12,-3.35 1.22,-7.86 5.08,-8.54Z"/>
    <path d="M1350.38,873.44c2.82,-1.22 6.28,-0.47 8.49,1.63c1.92,2.51 1.76,5.9 1.95,8.9c-0.04,37.31 0.03,74.63 -0.01,111.95c-0.14,7.82 1.02,16.11 -2.5,23.43c-4.15,8.95 -13.16,14.83 -22.27,17.86c-4.21,1.68 -8.93,-1.76 -8.88,-6.22c-0.75,-9.98 -0.14,-20 -0.32,-29.99c0.01,-32.33 0.01,-64.65 -0.01,-96.97c-0.17,-8.82 3.44,-18.23 10.97,-23.26c3.99,-2.75 8.02,-5.59 12.58,-7.33Z"/>
    <path d="M722.29,1255.29c2.76,-0.98 5.76,-0.06 8.3,1.17c33.37,19.28 66.78,38.51 100.17,57.77c6.89,4.12 14.92,7.66 18.79,15.16c4.87,7.63 4.26,17.03 3.6,25.66c-0.28,2.67 -1.89,6.27 -5.09,6.02c-5.17,0.24 -9.46,-3.05 -13.75,-5.43c-34.2,-19.78 -68.4,-39.57 -102.64,-59.28c-7.11,-4.02 -12.14,-11.38 -13.38,-19.44c-0.79,-5.47 -0.99,-11.11 0.07,-16.55c0.38,-2.21 1.73,-4.34 3.93,-5.08Z"/>
    <path d="M1402.29,1314.29c3.73,-1.89 8.19,0.76 8.87,4.73c1.08,5.93 0.29,12 0.43,18c0.12,37.87 0.27,75.75 -0.05,113.61c-0.01,8.77 -5.37,16.79 -12.97,20.91c-70.11,40.61 -140.37,81 -210.49,121.62c-2.99,1.64 -6.81,3.91 -10.15,1.87c-3.52,-1.98 -3.55,-6.5 -3.67,-10.03c0.75,-21.32 -0.01,-42.66 0,-63.98c-0.11,-18.66 0.14,-37.32 0.04,-55.98c-0.36,-7.1 1.01,-14.55 5.5,-20.24c3.52,-4.93 8.84,-8 14,-10.93c67.55,-39.21 135.27,-78.13 202.87,-117.26c1.79,-0.94 3.65,-1.77 5.62,-2.32Z"/>
  </g>
  <g id="_-ceed6dff" fill="#ceed6d" fill-rule="nonzero">
    <path d="M650.41,397.6c7.56,-2.15 15.98,-0.85 22.61,3.39c135.67,78.33 271.35,156.64 407,234.99c3.89,2.19 8.41,4.09 10.73,8.14c1.82,4.4 -1.67,8.37 -5.32,10.34c-17.05,9.95 -34.2,19.74 -51.27,29.66c-6.2,3.57 -12.69,7.76 -20.16,7.31c-8.25,0.4 -15.3,-4.5 -22.15,-8.37c-135.2,-78.13 -270.46,-156.16 -405.67,-234.26c-3.55,-1.82 -7.54,-5.84 -5.46,-10.11c1.89,-2.8 5.12,-4.26 7.88,-6.05c17.45,-9.86 34.67,-20.12 52.11,-29.99c3.14,-1.84 6.21,-3.91 9.7,-5.05Z"/>
    <path d="M1569.22,573.27c9.62,-2.31 18.36,3.61 26.1,8.47c2.59,1.81 6.53,4.45 4.79,8.15c-2.18,3.36 -6.08,5 -9.33,7.11c-18.61,10.63 -37.07,21.54 -55.73,32.08c-4.78,2.85 -10.47,4.22 -15.97,3.07c-6.78,-0.58 -12.46,-4.61 -18.07,-8.06c-3.1,-1.72 -5.31,-5.46 -4.08,-9c1.58,-2.43 3.84,-4.37 6.26,-5.95c19.08,-10.87 38.05,-21.94 57.08,-32.9c2.77,-1.51 5.87,-2.29 8.95,-2.97Z"/>
    <path d="M1196.07,610.18c7.13,-4.61 15.26,-8.93 24.05,-7.94c8.03,1.02 15.2,5.37 21.63,10.05c3.14,1.91 1.97,5.82 1.56,8.8c-6.85,5.34 -14.47,10.66 -23.38,11.4c-7.59,0.71 -14.92,-2.19 -21.13,-6.33c-3.02,-2.09 -7.46,-3.85 -7.52,-8.15c-0.5,-3.42 2.21,-6.08 4.79,-7.83Z"/>
    <path d="M315.38,608.44c3.1,-0.83 5.87,1.42 8.55,2.64c20.04,11.66 40.19,23.12 60.19,34.85c6.23,3.81 10.25,10.65 10.87,17.89c0.48,6 0.69,12.18 -0.83,18.06c-0.93,2.91 -4.5,3.94 -7.2,3.12c-5.23,-1.52 -9.64,-4.88 -14.34,-7.49c-16.52,-9.55 -33.07,-19.04 -49.55,-28.65c-7.71,-4.31 -11.75,-13.26 -11.82,-21.85c-0.01,-4.31 -0.22,-8.65 0.28,-12.93c0.45,-2.25 1.43,-4.95 3.85,-5.64Z"/>
    <path d="M1465.31,632.38c7.37,-2.18 15.32,-0.29 21.86,3.45c4.03,2.42 8.73,4.39 11.33,8.54c0.47,2.43 -0.13,5.34 -2.28,6.83c-2.71,2.07 -5.76,3.61 -8.64,5.39c-4.52,2.48 -9.16,5.43 -14.51,5.31c-9.43,0.69 -17.76,-4.69 -25,-10.05c-1.76,-2.11 -4.15,-5.84 -1.49,-8.18c4.82,-5.64 11.86,-8.87 18.73,-11.29Z"/>
    <path d="M416.36,667.39c4.74,-1.02 8.86,2.21 12.72,4.44c5.98,3.45 12.58,7.29 15.06,14.17c2.75,7.36 2.48,15.56 1.34,23.23c-0.22,3.59 -4.21,6.68 -7.65,4.9c-9.43,-3.46 -19.38,-9.09 -23.17,-18.96c-2.77,-5.95 -2.4,-12.69 -2.19,-19.07c0.31,-3.09 0.69,-7.26 3.89,-8.71Z"/>
    <path d="M514.52,909.12c0.33,-3.42 2.7,-7.04 6.41,-7.24c5.46,1.22 10.23,4.36 14.98,7.17c8.08,4.94 12.38,14.6 12.19,23.89c-0.16,5.62 0.75,12.25 -3.43,16.72c-6.89,0.49 -12.64,-3.75 -18.27,-7.05c-5.89,-3.6 -9.73,-9.87 -11.46,-16.44c-0.98,-5.62 -0.96,-11.4 -0.42,-17.05Z"/>
    <path d="M1606.42,902.5c1.97,-0.84 4.51,-0.77 6.07,0.91c1.95,2.36 2.24,5.56 2.24,8.52c-0.01,22.37 0.05,44.75 -0.01,67.13c-0.04,6.5 -1.9,13.31 -6.58,18.04c-5.37,5.7 -12.82,8.64 -19.35,12.74c-132.72,76.58 -265.39,153.25 -398.11,229.82c-3.84,2.19 -8.16,4.53 -12.73,3.61c-3.41,-2.65 -3.7,-7.31 -3.73,-11.28c0.02,-22.01 -0.14,-44.02 0.1,-66.03c0.09,-9.45 5.91,-18.02 13.83,-22.84c134.59,-77.72 269.21,-155.4 403.79,-233.15c4.74,-2.63 9.25,-5.83 14.48,-7.47Z"/>
    <path d="M620.25,1020.19c2.14,-1.54 4.69,0.03 6.88,0.68c5.88,2.46 11.11,6.21 16.72,9.23c12.05,6.93 24.09,13.9 36.13,20.86c6.65,3.7 14.07,7.37 17.45,14.64c3.89,6.46 3.48,14.17 3.4,21.41c-0.04,155.99 0.02,311.98 -0.02,467.96c-0,3.99 -0.13,8.7 -3.52,11.45c-3.56,1.3 -6.98,-1.06 -10.01,-2.63c-19.86,-11.54 -39.82,-22.91 -59.65,-34.5c-7.14,-4.05 -11.24,-12.23 -11.43,-20.29c-0.23,-7.65 -0.06,-15.31 -0.1,-22.96c-0,-151.69 0.01,-303.37 -0,-455.06c-0.08,-3.9 0.38,-8.65 4.15,-10.79Z"/>
    <path d="M1147.39,1343.5c3.17,-1.5 8.06,-0.31 8.88,3.51c1.17,4.9 1.08,9.99 0.78,14.99c-0.34,8.65 -4.98,17.07 -12.31,21.73c-3.4,1.99 -6.74,4.09 -10.27,5.81c-2.99,1.5 -7.46,1.56 -9.47,-1.51c-2.44,-4.25 -1.6,-9.38 -1.75,-14.06c-0.2,-9.44 4.37,-19.22 12.57,-24.19c3.72,-2.32 7.43,-4.75 11.57,-6.28Z"/>
    <path d="M993.44,1549.66c3.24,-0.8 8.24,-1.57 9.71,2.41c1.97,6.33 1.68,13.2 0.59,19.69c-1.06,7.65 -6.06,14.53 -12.73,18.33c-4.36,2.55 -8.8,5.66 -14,5.96c-3.75,0.31 -5.59,-3.75 -5.65,-6.9c-0.2,-8.32 -0.98,-17.13 3.03,-24.76c4.25,-7.14 11.88,-11.11 19.05,-14.73Z"/>
    <path d="M995.76,1607.82c3.02,-1.4 7.17,0.6 7.69,3.96c1.03,4.32 1.11,8.81 1.11,13.24c-0.09,18.35 -0.03,36.7 -0,55.06c-0.13,6.27 -0.74,12.88 -4.18,18.33c-2.96,5.09 -8.47,7.65 -13.25,10.69c-4.07,2.28 -8.36,5.32 -13.29,4.3c-1.37,-2.58 -2.75,-5.3 -2.58,-8.29c-0.05,-22.73 0.04,-45.45 -0.05,-68.17c-0.09,-7.02 2.34,-14.3 7.63,-19.09c4.84,-4.47 10.73,-7.81 16.92,-10.03Z"/>
  </g>
  <g id="_-6dc039ff" fill="#6dc039" fill-rule="nonzero">
    <path d="M1008.39,426.57c6.96,-1.3 14.52,-0.24 20.56,3.56c18.81,10.78 37.55,21.69 56.34,32.49c2.76,1.51 5.99,3.75 5.61,7.35c0.62,3.89 -2.79,6.46 -5.69,8.25c-35.49,20.49 -71,40.97 -106.47,61.48c-5.08,2.93 -10.78,5.21 -16.74,4.81c-6.58,-0.07 -12.37,-3.48 -17.93,-6.59c-17.3,-10.1 -34.67,-20.06 -52.01,-30.08c-3.05,-1.98 -6.98,-4.69 -6.3,-8.88c0.82,-4.64 5.61,-6.77 9.25,-8.93c34.5,-19.8 68.9,-39.78 103.38,-59.62c3.07,-1.86 6.4,-3.35 10,-3.84Z"/>
    <path d="M1414.39,661.7c6.52,-1.55 13.64,-0.87 19.55,2.41c4.77,2.64 10.41,4.7 13.4,9.57c0.79,3.12 -0.41,6.92 -3.62,8.15c-7.28,3.72 -14.06,9.9 -22.71,9.58c-7.13,0.29 -13.43,-3.53 -19.37,-6.96c-3.21,-1.88 -6.83,-4.4 -7.12,-8.46c0.64,-2.74 2.4,-5.19 4.8,-6.67c4.72,-3.06 9.61,-6.06 15.07,-7.62Z"/>
    <path d="M465.87,697.89c2.22,-2.44 5.66,-1.04 8.16,0.1c5.64,2.77 11.18,5.89 15.95,10.02c5.41,5.08 7.29,12.77 7.17,19.97c0.18,4.88 -0.3,9.77 -1.72,14.46c-6.81,2.89 -13.35,-1.56 -18.97,-4.97c-8.16,-5.29 -13.55,-14.73 -13.18,-24.53c0.27,-5 -1.03,-10.97 2.59,-15.05Z"/>
    <path d="M467.35,1108.43c3.71,-1.41 7.59,0.59 10.81,2.35c34.68,19.99 69.32,40.04 104,60.02c3.67,2.19 7.61,4.25 10.28,7.71c3.81,4.98 6.72,11.01 6.42,17.43c0.01,22.02 0.02,44.05 0,66.08c-0.22,3.38 0.06,7.61 -2.77,10.03c-3.74,2 -8.08,0.18 -11.45,-1.75c-31.84,-18.53 -63.79,-36.85 -95.66,-55.31c-7.14,-4.32 -15.37,-7.56 -20.45,-14.51c-3.27,-4.83 -5.34,-10.6 -5.23,-16.47c-0.02,-22.02 -0.01,-44.04 0.01,-66.05c0.18,-3.4 0.43,-7.99 4.04,-9.53Z"/>
    <path d="M1400.27,1138.47c2.74,-1.22 6.53,-2.14 8.86,0.39c2.74,2.58 2.43,6.67 2.61,10.12c0.01,40.67 0.02,81.34 0.01,122.01c0.22,9.97 -4.68,20.37 -13.65,25.22c-17.23,10.1 -34.61,19.93 -51.84,30.02c-5,2.7 -11.57,7.85 -17.07,3.65c-2.04,-2.09 -1.92,-5.18 -2.01,-7.85c-0.13,-9.69 0.23,-19.37 -0.33,-29.04c0.06,-31.32 -0.02,-62.65 0.1,-93.96c0.01,-5.65 0.62,-11.49 3.79,-16.32c3.78,-7.62 11.97,-11.04 18.84,-15.23c16.96,-9.57 33.59,-19.71 50.69,-29.01Z"/>
    <path d="M981.72,1497.74c4.46,-3 9.08,-5.92 14.22,-7.62c3.71,-1.4 8.03,1.77 7.97,5.72c1.17,9.49 1.1,20.23 -4.93,28.2c-4.2,5.69 -10.63,8.95 -16.78,12.1c-2.6,1.28 -5.58,1.11 -8.39,1.24c-3.38,-5.57 -2.51,-12.18 -2.57,-18.38c-0.05,-8.16 3.51,-16.68 10.48,-21.26Z"/>
  </g>
  <g id="_-a4e246ff" fill="#a4e246" fill-rule="nonzero">
    <path d="M1091.23,494.3c6.12,-3.36 11.96,-7.52 18.83,-9.23c5.68,-0.98 11.76,-0.69 16.98,1.96c6.37,3.05 12.33,6.9 18.47,10.39c11.85,6.77 23.64,13.63 35.46,20.45c3.53,2.1 7.31,3.93 10.27,6.84c2.23,1.89 1.41,5.05 1.57,7.61c-3.58,4.22 -8.71,6.41 -13.4,9.1c-33.35,19.33 -66.76,38.55 -100.12,57.84c-8.49,4.97 -19.3,5.07 -27.97,0.5c-17.83,-10.14 -35.48,-20.59 -53.33,-30.68c-3.1,-1.82 -6.49,-3.37 -8.94,-6.06c-2.53,-2.74 -1.97,-7.69 1.11,-9.76c6,-4.61 12.92,-7.78 19.33,-11.75c27.26,-15.72 54.52,-31.44 81.74,-47.21Z"/>
    <path d="M396.28,544.47c8.05,-2.57 16.85,-0.03 23.77,4.39c3.59,2.26 8.82,4.18 9.21,9.08c0.63,3.91 -3.07,6.46 -5.83,8.45c-18.16,10.49 -36.33,20.97 -54.48,31.46c-6.97,4.33 -15.92,7.04 -23.91,4.05c-4.28,-1.29 -7.98,-3.85 -11.81,-6.03c-2.95,-1.8 -6.1,-3.68 -7.88,-6.75c-0.51,-2.7 1.8,-4.58 3.62,-6.11c5.07,-3.87 10.87,-6.61 16.36,-9.81c14.95,-8.7 29.95,-17.32 44.93,-25.98c1.92,-1.08 3.91,-2.08 6.02,-2.75Z"/>
    <path d="M1607.44,608.64c1.64,-0.65 3.77,-0.7 5.03,0.77c1.99,2.37 2.24,5.62 2.27,8.59c0.04,22.03 0.01,44.06 0.01,66.09c0.01,6.11 -1.27,12.59 -5.21,17.43c-3.98,5.22 -9.95,8.33 -15.68,11.24c-2.83,1.2 -6.49,3.04 -9.19,0.63c-2.99,-2.48 -2.82,-6.84 -3.11,-10.36c0.02,-21.34 -0.05,-42.67 0.09,-64c-0.04,-7.66 2.29,-16.01 8.77,-20.71c5.31,-3.77 10.92,-7.32 17.02,-9.68Z"/>
    <path d="M1056.38,691.57c7.65,-1.89 16.28,-1.44 23.09,2.85c51.19,29.53 102.36,59.11 153.55,88.64c3.61,2.2 7.93,3.86 10.3,7.58c1.71,3.56 -0.29,7.45 -3.67,9.07c-87.71,50.63 -175.39,101.31 -263.14,151.87c-6.35,4.2 -14.68,5.87 -21.81,2.68c-6.25,-2.88 -12.01,-6.67 -18.02,-9.99c-45.62,-26.38 -91.28,-52.7 -136.91,-79.07c-4.58,-2.78 -9.42,-5.17 -13.8,-8.26c-2.86,-1.91 -2.7,-6.16 -0.7,-8.6c4,-3.56 8.73,-6.16 13.4,-8.74c80.51,-46.49 161.05,-92.95 241.54,-139.47c5.32,-2.97 10.4,-6.5 16.17,-8.56Z"/>
    <path d="M671.24,814.34c4.21,-1.01 8.01,1.97 11.51,3.9c83.64,48.34 167.33,96.61 250.99,144.93c5.83,3.74 12.8,6.29 17,12.11c3.9,5.78 4.38,12.98 4.05,19.75c-0.02,59.66 0.04,119.33 -0.03,179c-0.28,3.42 -0.01,7.68 -2.85,10.13c-3.49,1.14 -7.18,-0.09 -10.26,-1.74c-86.88,-50.16 -173.77,-100.29 -260.64,-150.48c-7.95,-4.75 -13.85,-13.47 -13.84,-22.91c-0.49,-13.31 0.47,-26.65 -0.21,-39.97c-0.43,-6.68 0.63,-13.36 -0.05,-20.04c0.49,-42.01 0.11,-84.04 0.28,-126.06c-0.02,-3.2 0.57,-7.41 4.05,-8.62Z"/>
    <path d="M1148.42,873.57c2.48,-1.02 5.5,-0.06 7.37,1.74c1.41,3.34 1.11,7.12 1.36,10.68c0.04,98.68 0.01,197.36 0.04,296.03c0.26,7.31 -1.86,14.83 -6.84,20.31c-5.31,6.09 -13.04,9.02 -19.74,13.2c-47.07,27.3 -94.27,54.38 -141.35,81.65c-4.32,2.45 -9.04,5.68 -14.25,4.69c-3.27,-1.48 -3.79,-5.69 -3.76,-8.87c-0.01,-98 -0.03,-196 -0.01,-294c-0.08,-7.79 -0.67,-16.14 3.54,-23.09c4.67,-6.74 12.74,-9.49 19.35,-13.82c44.38,-25.62 88.73,-51.29 133.14,-76.85c7.01,-3.95 13.75,-8.48 21.15,-11.67Z"/>
    <path d="M468.39,990.48c3.34,-0.14 6.65,0.95 9.55,2.55c35.91,20.79 71.86,41.5 107.79,62.27c8.58,4.91 13.67,14.87 13.22,24.68c-0.02,21 -0.07,42.02 -0.05,63.03c0.08,3.5 -0.31,7.02 -1.41,10.37c-2.13,0.75 -4.24,1.97 -6.57,1.82c-4,-0.82 -7.45,-3.13 -10.89,-5.19c-34.66,-20 -69.32,-39.99 -103.95,-60.03c-6.17,-3.35 -9.78,-9.78 -11.86,-16.25c-1.23,-4.13 -0.9,-8.49 -0.95,-12.74c0.05,-20.35 -0.05,-40.71 0.03,-61.05c-0.06,-3.65 1.07,-8.42 5.09,-9.46Z"/>
    <path d="M1301.29,1196.29c3.04,-1.36 6.79,0.74 7.71,3.84c1,3.19 0.82,6.58 0.9,9.89c-0.02,40.34 0.04,80.67 -0.05,121.01c0.02,8.27 -3.67,16.54 -10.24,21.66c-4.99,3.86 -10.78,6.52 -16.16,9.78c-15.16,8.8 -30.38,17.51 -45.54,26.3c-2.81,1.6 -6.54,2.77 -9.47,0.84c-2.69,-1.91 -3.2,-5.52 -3.21,-8.58c-0.02,-41.68 0,-83.37 -0.01,-125.05c-0.35,-9.44 4.56,-19.03 12.65,-23.99c15.7,-9.06 31.37,-18.17 47.09,-27.18c5.34,-3.03 10.45,-6.6 16.33,-8.52Z"/>
    <path d="M875.25,1637.38c5.16,-1.4 9.62,2.16 13.84,4.53c17.9,10.48 35.93,20.74 53.86,31.18c4.89,3.1 9.03,7.83 10.47,13.54c1.83,5.62 1.33,11.61 1.31,17.43c-0.09,3.3 -0.65,7.08 -3.09,9.49c-5.26,0.8 -9.7,-2.86 -14.04,-5.23c-17.94,-10.42 -35.94,-20.75 -53.91,-31.13c-4.02,-2.43 -7.96,-5.5 -9.9,-9.91c-3.69,-6.76 -3.27,-14.74 -2.93,-22.17c0.32,-2.98 0.76,-7.16 4.39,-7.73Z"/>
  </g>
  <g id="_-e6eeb2ff" fill="#e6eeb2" fill-rule="nonzero">
    <path d="M1413.43,485.69c6.46,-2.05 13.81,-1.34 19.61,2.28c36.8,21.18 73.55,42.47 110.34,63.68c2.15,1.33 4.45,2.75 5.81,4.97c0.46,2.34 0.63,5.33 -1.65,6.83c-6.41,4.83 -13.71,8.28 -20.54,12.45c-43.12,24.94 -86.31,49.77 -129.41,74.75c-6.46,3.47 -12.52,7.82 -19.45,10.32c-7.16,1.69 -15.1,1.33 -21.53,-2.51c-35.73,-20.62 -71.46,-41.27 -107.2,-61.88c-2.23,-1.37 -4.67,-2.62 -6.22,-4.78c-1.71,-2.85 -1.35,-7.11 1.43,-9.17c2.83,-2.34 6.14,-3.99 9.31,-5.83c50.04,-28.92 100.11,-57.79 150.15,-86.71c2.97,-1.74 6.07,-3.29 9.35,-4.4Z"/>
    <path d="M429.42,583.46c6.8,-5.94 15.41,-10.38 24.57,-10.69c5.15,0.35 10.4,1.54 14.85,4.27c67.42,38.96 134.87,77.84 202.28,116.81c5.1,2.97 11.13,5.35 13.56,11.22c-0.99,2.64 -2.18,5.42 -4.68,6.98c-6.11,3.92 -12.53,7.94 -19.93,8.67c-6.9,0.81 -13.69,-1.81 -19.49,-5.36c-66.98,-38.66 -133.94,-77.34 -200.92,-116c-3.8,-2.09 -7.68,-4.19 -10.74,-7.32c-2.31,-2.23 -2.06,-6.62 0.5,-8.58Z"/>
    <path d="M314.41,667.47c6.01,-1.8 10.95,2.52 15.85,5.19c51.35,29.7 102.74,59.33 154.1,89.01c9.52,5.37 13.58,16.83 12.85,27.32c-0.03,37.34 -0.03,74.69 -0.02,112.04c-0.05,5.35 0.21,10.83 -1.19,16.05c-0.68,2.67 -3.81,2.85 -6.06,2.75c-4.48,0.08 -7.98,-2.99 -11.71,-4.99c-48.61,-28.03 -97.21,-56.08 -145.79,-84.16c-6.15,-3.61 -13.18,-6.72 -17.03,-13.07c-3.57,-5.09 -4.34,-11.53 -4.17,-17.59c0.04,-39.33 -0,-78.66 0.02,-117.99c0.05,-3.93 -0.29,-7.97 0.95,-11.77c0.41,-1.08 0.88,-2.58 2.2,-2.79Z"/>
    <path d="M1553.33,697.46c2.17,-0.65 4.49,-0.98 6.77,-0.67c2.74,0.69 3.79,3.67 4.11,6.19c0.9,9 0.82,18.8 -4.5,26.54c-3.68,5.15 -9.06,8.69 -14.59,11.58c-64.68,37.33 -129.35,74.68 -194.03,112.02c-4.76,2.47 -9.1,5.77 -14.15,7.64c-2.72,1.11 -5.95,0.27 -8.08,-1.63c-1.86,-2.65 -1.65,-6.06 -1.71,-9.13c0.05,-3.97 -0.16,-7.97 0.39,-11.91c1.53,-7.4 6.38,-13.8 12.66,-17.89c68.04,-39.27 136.07,-78.55 204.1,-117.83c2.97,-1.69 5.82,-3.67 9.03,-4.91Z"/>
    <path d="M875.41,1343.44c5.06,-1.4 9.43,2.28 13.62,4.53c5.26,2.85 10.02,6.98 12.47,12.56c2.44,4.75 3.23,10.14 3.04,15.44c-0.03,79.67 0.07,159.35 -0.04,239.02c-0.21,3.62 -0.19,8.77 -4.29,10.23c-6.44,0.98 -11.82,-3.25 -16.96,-6.4c-8.4,-5.15 -13.14,-15.07 -12.55,-24.82c0.02,-79.97 0.03,-159.95 0,-239.93c0.48,-3.72 -0.26,-9.92 4.71,-10.63Z"/>
    <path d="M1147.34,1402.48c3.29,-1.04 8.19,-0.64 8.97,3.51c1.68,9.9 0.54,20.02 0.87,30.02c0.02,52.32 0,104.65 0.02,156.97c0.11,7.09 -1.31,14.68 -6.27,20.06c-5.68,5.61 -13.16,8.74 -19.89,12.84c-29.55,17.19 -59.21,34.18 -88.78,51.33c-5.04,2.48 -9.49,6.74 -15.32,7.15c-4.75,-0.81 -5.39,-6.55 -5.47,-10.45c0.02,-61.29 -0.05,-122.58 0,-183.87c0.1,-6.71 2.89,-13.26 7.32,-18.24c4.2,-4.33 9.67,-7.04 14.81,-10.05c31.31,-18.05 62.59,-36.16 93.9,-54.22c3.23,-1.75 6.22,-4.13 9.84,-5.05Z"/>
  </g>
  <g id="_-41962aff" fill="#41962a" fill-rule="nonzero">
    <path d="M397.44,602.68c6.89,-1.55 14.15,0.18 20.23,3.59c116.43,67.24 232.89,134.43 349.31,201.69c5.46,3.2 11.16,6.06 16.18,9.94c3.16,2.18 3.12,7.15 0.54,9.77c-3.33,3.65 -8.03,5.54 -12.32,7.79c-6.34,3.32 -14.26,4.18 -20.81,0.97c-5.97,-2.83 -11.53,-6.41 -17.27,-9.63c-117.1,-67.61 -234.2,-135.2 -351.28,-202.84c-2.43,-1.67 -6.02,-3.42 -5.61,-6.93c-0.4,-2.97 2.33,-4.68 4.4,-6.16c5.13,-3.45 10.58,-6.68 16.63,-8.19Z"/>
    <path d="M861.21,631.48c8.16,-0.2 15.18,4.46 21.96,8.38c29.79,17.24 59.61,34.4 89.39,51.63c4.77,2.89 9.95,5.18 14.24,8.81c3.94,3 2.73,9.77 -1.51,11.93c-51.16,29.53 -102.33,59.07 -153.5,88.61c-6.47,3.65 -13.03,8.38 -20.84,8.02c-5.53,0.38 -10.91,-1.41 -15.61,-4.23c-36.17,-20.75 -72.24,-41.67 -108.35,-62.52c-2.92,-1.57 -5.44,-4.55 -4.84,-8.08c0.25,-4 4.26,-5.77 7.22,-7.61c52.42,-30.24 104.83,-60.48 157.22,-90.77c4.45,-2.52 9.45,-4.21 14.62,-4.17Z"/>
    <path d="M1159.36,632.55c7.1,-2.19 14.87,-0.83 21.3,2.73c4.13,2.32 8.83,4.26 11.68,8.24c1.04,2.41 0.62,5.59 -1.16,7.59c-2.57,2.98 -6.25,4.56 -9.55,6.52c-17.08,9.96 -34.27,19.71 -51.33,29.7c-4.63,2.68 -9.88,4.41 -15.28,4.07c-6.89,0.2 -12.88,-3.63 -18.69,-6.81c-2.95,-1.81 -6.57,-3.95 -6.89,-7.78c-0.23,-3.86 2.85,-6.72 5.96,-8.44c15.6,-9.04 31.25,-18.02 46.87,-27.05c5.55,-3.18 10.93,-6.84 17.09,-8.77Z"/>
    <path d="M1555.38,638.44c3.56,-2.22 8.29,0.44 8.55,4.55c0.93,8.63 1.31,17.99 -3.18,25.79c-3.32,7.32 -10.96,10.76 -17.52,14.55c-117.33,67.62 -234.55,135.43 -351.84,203.11c-3.08,1.61 -6.01,3.84 -9.53,4.33c-3.59,0.45 -7.12,-2.5 -7.27,-6.12c-0.71,-9.43 -1.26,-20.16 5.18,-27.91c5.47,-5.87 13.01,-9.08 19.77,-13.18c117.67,-67.99 235.4,-135.89 353.07,-203.89c0.88,-0.47 1.8,-0.88 2.77,-1.23Z"/>
    <path d="M1298.28,844.59c2.78,-1.12 6.48,-2.05 8.96,0.23c2.63,2.23 2.36,6.02 2.56,9.14c0.04,57.36 0.06,114.73 0.03,172.09c-0.14,7.97 0.9,16.5 -3.04,23.81c-3.36,7.12 -10.37,11.33 -17,14.98c-33.64,19.3 -67.18,38.76 -100.77,58.14c-3.27,1.52 -6.96,3.81 -10.66,2.51c-3.64,-2.11 -4.18,-6.76 -4.13,-10.56c0.05,-60.64 -0.02,-121.29 0.04,-181.93c-0.32,-9.49 4.42,-19.24 12.67,-24.15c4.08,-2.59 8.32,-4.9 12.5,-7.33c32.98,-18.91 65.79,-38.17 98.84,-56.93Z"/>
    <path d="M571.42,931.5c2.99,-0.37 5.67,1.5 8.25,2.76c17.81,10.2 35.52,20.56 53.34,30.73c6.06,3.34 11.69,8.11 14.47,14.6c3.08,6.34 2.39,13.62 2.12,20.45c-0.11,3.26 -1.22,6.96 -4.53,8.3c-5.7,0.14 -10.61,-3.32 -15.34,-6.08c-13.77,-7.89 -27.54,-15.79 -41.22,-23.83c-4.42,-2.52 -8.97,-4.82 -13.1,-7.78c-4.2,-2.98 -6.78,-7.66 -8.63,-12.35c-1.95,-4.86 -1.52,-10.18 -1.57,-15.29c0.1,-3.11 -0.03,-6.47 1.61,-9.23c1.24,-1.22 2.91,-1.92 4.6,-2.28Z"/>
    <path d="M724.21,1078.49c5.48,0.51 10.08,3.94 14.79,6.5c45.61,26.38 91.25,52.69 136.88,79.04c5.65,3.37 11.54,6.38 16.96,10.14c7.32,5.1 11.84,13.91 11.62,22.85c-0.06,41.32 -0.03,82.64 -0.04,123.96c-0.31,3.4 0.04,8.08 -3.47,9.96c-3.68,1.27 -7.68,-0.19 -10.92,-2c-50.08,-28.88 -100.13,-57.84 -150.22,-86.7c-6.56,-3.87 -14.09,-7.18 -17.91,-14.19c-4.81,-7.44 -4.09,-16.63 -4.11,-25.08c-0.11,-34 -0.04,-68 0.01,-102c0.09,-6.28 -0.78,-12.77 1.22,-18.85c0.54,-2.32 2.92,-3.66 5.19,-3.63Z"/>
    <path d="M922.46,1200.35c0.81,-3.7 5.67,-5.44 8.87,-3.73c6.14,2.8 12.44,5.91 17.15,10.87c4.11,4.8 6.34,11.15 6.32,17.47c-0.06,139.36 0.01,278.73 -0.03,418.09c0.17,4.03 -0.86,7.96 -2.28,11.7c-2.81,-0.11 -5.78,0.36 -8.42,-0.8c-6.64,-3.31 -13.39,-7.14 -17.74,-13.35c-3.56,-4.74 -4.64,-10.8 -4.77,-16.6c0.05,-135.33 0.01,-270.66 -0.04,-405.99c0.12,-5.88 -0.73,-11.92 0.94,-17.66Z"/>
    <path d="M1146.34,1226.37c3.24,-1.74 8.18,-1.19 9.82,2.46c0.92,2.94 0.92,6.08 1.04,9.14c-0.04,17.67 -0.02,35.34 -0.02,53.01c-0.03,8.22 0.73,17.1 -3.73,24.44c-3.42,6.89 -10.42,10.7 -16.92,14.19c-3.05,1.49 -6.96,2.62 -10.12,0.92c-3.15,-2.07 -2.98,-6.26 -3.09,-9.56c-0.01,-21.33 0.03,-42.66 -0.03,-63.99c-0.38,-9.45 3.97,-19.41 12.16,-24.5c3.54,-2.18 7.09,-4.39 10.89,-6.11Z"/>
  </g>
  <g id="_-e8eadaff" fill="#e8eada" fill-rule="nonzero">
    <path d="M1261.38,632.47c7.11,-2.23 14.84,-0.56 21.28,2.9c34.2,19.8 68.44,39.54 102.68,59.29c4.07,2.37 8.74,4.48 11.16,8.78c1.41,3.63 -1.62,6.92 -4.7,8.38c-36.54,21.16 -73.13,42.22 -109.69,63.34c-8.19,5.6 -19.53,5.56 -27.95,0.5c-35.22,-20.33 -70.43,-40.68 -105.67,-60.98c-3.14,-1.85 -7.17,-3.64 -8.01,-7.57c-1.02,-3.68 1.79,-7.14 4.87,-8.79c33.32,-19.32 66.71,-38.52 100.05,-57.82c5.18,-2.95 10.23,-6.26 15.98,-8.03Z"/>
    <path d="M517.21,727.16c2.56,-2.53 6.31,-0.72 8.94,0.71c37.37,21.61 74.78,43.17 112.14,64.79c7.87,4.36 11.82,13.5 11.53,22.25c0.16,40.04 0.03,80.08 0.09,120.12c-0.17,5.01 0.45,10.82 -3.6,14.57c-6.85,0.59 -12.38,-3.83 -18.04,-6.92c-33.2,-19.13 -66.34,-38.37 -99.59,-57.45c-6.72,-3.98 -12.06,-10.55 -13.8,-18.25c-0.58,-3.63 -0.62,-7.31 -0.62,-10.96c0.04,-39.69 -0.05,-79.37 0.02,-119.06c0.13,-3.41 -0.01,-7.45 2.93,-9.8Z"/>
    <path d="M1096.33,1255.42c3.07,-0.53 7.41,-1 8.71,2.68c1.45,4.82 1.15,9.93 1.26,14.92c-0.17,33.31 -0.07,66.63 -0.02,99.94c-0.19,8.67 0.81,17.54 -1.46,26.02c-2.25,5.78 -5.88,11.34 -11.43,14.41c-33.58,19.41 -67.18,38.8 -100.79,58.17c-4.17,2.27 -8.08,5.14 -12.62,6.63c-2.28,0.48 -5.48,0.92 -7.02,-1.22c-1.85,-3.32 -1.65,-7.26 -1.71,-10.92c0.03,-41.69 -0.03,-83.38 0.07,-125.07c0.12,-8.98 5.6,-17.05 13.25,-21.48c34.18,-19.8 68.42,-39.5 102.62,-59.26c3.04,-1.6 5.8,-3.86 9.14,-4.82Z"/>
  </g>
</svg>
